<?xml version="1.0" standalone="no"?>
<!DOCTYPE svg PUBLIC "-//W3C//DTD SVG 20010904//EN"
 "http://www.w3.org/TR/2001/REC-SVG-20010904/DTD/svg10.dtd">
<svg version="1.0" xmlns="http://www.w3.org/2000/svg"
 width="512.000000pt" height="512.000000pt" viewBox="0 0 512.000000 512.000000"
 preserveAspectRatio="xMidYMid meet">
<metadata>
Created by potrace 1.14, written by Peter Selinger 2001-2017
</metadata>
<g transform="translate(0.000000,512.000000) scale(0.100000,-0.100000)"
fill="#000000" stroke="none">
<path d="M0 2560 l0 -2560 2560 0 2560 0 0 2560 0 2560 -2560 0 -2560 0 0
-2560z m610 1840 c129 -51 265 -105 303 -120 37 -15 64 -29 61 -32 -3 -4 -7
-12 -8 -20 -3 -13 -6 -22 -39 -101 -9 -20 -16 -38 -16 -40 0 -1 -5 -15 -11
-32 -7 -16 -13 -34 -14 -40 -1 -5 -4 -14 -8 -20 -3 -5 -9 -25 -13 -43 l-7 -32
-96 82 c-137 116 -505 442 -519 460 -10 11 -10 23 -3 45 l11 30 62 -22 c34
-13 168 -65 297 -115z m3552 -2108 l807 -1587 -432 -217 -432 -217 -498 0
-497 -1 -153 123 c-83 68 -204 166 -269 218 l-116 94 -269 58 -268 57 -657 0
-657 0 -10 38 c-18 68 -191 811 -191 820 0 5 55 71 121 148 380 436 650 819
912 1294 41 74 99 175 130 224 93 145 189 345 250 519 6 16 49 17 714 17 l708
0 807 -1588z"/>
<path d="M2545 2966 c-76 -33 -125 -131 -104 -208 24 -89 85 -139 172 -140
136 -1 223 126 172 249 -9 21 -23 46 -33 56 -46 51 -142 71 -207 43z"/>
</g>
</svg>
