<svg width="2714" height="474" viewBox="0 0 2714 474" fill="none" xmlns="http://www.w3.org/2000/svg">
<g clip-path="url(#clip0_88_73)">
<path d="M639.098 420.832C610.916 420.832 585.723 415.423 563.519 404.606C541.6 393.789 524.52 378.701 512.279 359.344C500.039 339.702 493.918 317.356 493.918 292.305V120.224H590.42V292.305C590.42 309.385 594.548 322.195 602.803 330.735C611.059 339.275 623.157 343.545 639.098 343.545C655.04 343.545 667.138 339.275 675.393 330.735C683.649 321.91 687.776 309.1 687.776 292.305V120.224H784.278V292.305C784.278 317.356 778.158 339.702 765.917 359.344C753.677 378.701 736.454 393.789 714.25 404.606C692.331 415.423 667.28 420.832 639.098 420.832Z" fill="white"/>
<path d="M871.323 120.224H957.15L1074.15 278.641V120.224H1150.58V414H1065.18L947.329 261.134V414H871.323V120.224Z" fill="white"/>
<path d="M1240.33 120.224H1338.96V414H1240.33V120.224Z" fill="white"/>
<path d="M1567.12 420.832C1538.66 420.832 1512.75 414.142 1489.41 400.763C1466.35 387.099 1447.99 368.596 1434.33 345.253C1420.95 321.626 1414.26 295.579 1414.26 267.112C1414.26 238.076 1420.8 211.887 1433.9 188.544C1446.99 165.201 1464.93 146.983 1487.7 133.888C1510.47 120.509 1536.09 113.819 1564.56 113.819C1579.93 113.819 1595.02 115.669 1609.82 119.37C1624.63 123.07 1637.29 128.337 1647.83 135.169L1636.3 201.354C1615.8 193.668 1597.3 189.825 1580.79 189.825C1558.01 189.825 1540.51 196.515 1528.27 209.894C1516.02 222.989 1509.9 241.919 1509.9 266.685C1509.9 290.882 1516.31 309.812 1529.12 323.476C1542.21 336.855 1560.29 343.545 1583.35 343.545C1592.17 343.545 1600.43 342.691 1608.11 340.983C1615.8 339.275 1625.19 336.144 1636.3 331.589L1648.25 399.055C1623.49 413.573 1596.44 420.832 1567.12 420.832Z" fill="white"/>
<path d="M1857.83 420.832C1827.09 420.832 1799.76 414.285 1775.85 401.19C1752.22 388.095 1733.72 370.019 1720.34 346.961C1707.24 323.618 1700.7 297.144 1700.7 267.539C1700.7 237.649 1707.24 211.033 1720.34 187.69C1733.72 164.347 1752.22 146.271 1775.85 133.461C1799.76 120.366 1827.09 113.819 1857.83 113.819C1888.58 113.819 1915.76 120.366 1939.39 133.461C1963.3 146.271 1981.81 164.347 1994.9 187.69C2008.28 210.748 2014.97 237.364 2014.97 267.539C2014.97 297.144 2008.28 323.618 1994.9 346.961C1981.81 370.019 1963.3 388.095 1939.39 401.19C1915.48 414.285 1888.29 420.832 1857.83 420.832ZM1857.83 343.118C1875.77 343.118 1890.43 336.144 1901.81 322.195C1913.49 308.246 1919.32 289.885 1919.32 267.112C1919.32 252.025 1916.62 238.645 1911.21 226.974C1906.08 215.018 1898.82 205.766 1889.43 199.219C1880.04 192.387 1869.36 188.971 1857.41 188.971C1845.73 188.971 1835.2 192.387 1825.81 199.219C1816.41 205.766 1809.16 215.018 1804.03 226.974C1798.91 238.645 1796.34 252.025 1796.34 267.112C1796.34 289.885 1802.04 308.246 1813.42 322.195C1824.81 336.144 1839.61 343.118 1857.83 343.118Z" fill="white"/>
<path d="M2090.06 120.224H2175.88L2292.88 278.641V120.224H2369.32V414H2283.92L2166.06 261.134V414H2090.06V120.224Z" fill="white"/>
<path d="M2550.01 420.832C2509.88 420.832 2476 413.431 2448.39 398.628L2469.74 332.443C2499.06 342.976 2525.25 348.242 2548.31 348.242C2560.83 348.242 2569.94 346.819 2575.63 343.972C2581.61 340.841 2584.6 336.286 2584.6 330.308C2584.6 326.323 2583.03 322.907 2579.9 320.06C2576.77 316.929 2570.51 313.513 2561.12 309.812C2551.72 306.111 2537.63 301.557 2518.84 296.148C2495.78 289.316 2477.85 278.214 2465.04 262.842C2452.23 247.185 2445.83 229.251 2445.83 209.04C2445.83 177.727 2456.07 154.099 2476.57 138.158C2497.35 121.932 2525.25 113.819 2560.26 113.819C2578.48 113.819 2596.41 115.812 2614.06 119.797C2631.71 123.497 2647.37 129.048 2661.03 136.45L2637.98 200.927C2622.03 195.518 2608.09 191.675 2596.13 189.398C2584.46 186.836 2573.07 185.555 2561.97 185.555C2543.18 185.555 2533.79 190.679 2533.79 200.927C2533.79 206.051 2536.78 210.463 2542.75 214.164C2549.02 217.58 2561.68 221.992 2580.76 227.401C2610.65 235.372 2633.28 247.612 2648.65 264.123C2664.02 280.349 2671.71 299.849 2671.71 322.622C2671.71 354.22 2661.46 378.559 2640.96 395.639C2620.47 412.434 2590.15 420.832 2550.01 420.832Z" fill="white"/>
<g filter="url(#filter0_d_88_73)">
<path d="M213.611 13.7715L174.525 84.6364L287.564 105.272L304.551 161.799L370.071 294.553V397.259L447.725 358.459V178.786L355.511 57.4518L287.564 57.4518L262.01 13.7715L229.323 57.4518L213.611 13.7715Z" fill="#CF3DFF"/>
</g>
<path d="M49.9932 276.778C110.387 209.563 135.146 165.811 174.52 84.5879H298.281L439.596 362.501L364.482 400.057H276.441L230.157 362.501L181.811 351.988H67.621L49.9932 276.778Z" fill="white"/>
<circle cx="233.879" cy="179.186" r="16.1301" fill="#2F2D2D"/>
<path d="M146.378 140.481L10 20.0396L92.4996 52.0928L174.478 84.4998C167.414 105.693 157.524 124.217 146.378 140.481Z" fill="url(#paint0_linear_88_73)"/>
</g>
<defs>
<filter id="filter0_d_88_73" x="144.525" y="-28.2285" width="365.2" height="475.488" filterUnits="userSpaceOnUse" color-interpolation-filters="sRGB">
<feFlood flood-opacity="0" result="BackgroundImageFix"/>
<feColorMatrix in="SourceAlpha" type="matrix" values="0 0 0 0 0 0 0 0 0 0 0 0 0 0 0 0 0 0 127 0" result="hardAlpha"/>
<feOffset dx="16" dy="4"/>
<feGaussianBlur stdDeviation="23"/>
<feComposite in2="hardAlpha" operator="out"/>
<feColorMatrix type="matrix" values="0 0 0 0 0.865345 0 0 0 0 0.454167 0 0 0 0 1 0 0 0 1 0"/>
<feBlend mode="normal" in2="BackgroundImageFix" result="effect1_dropShadow_88_73"/>
<feBlend mode="normal" in="SourceGraphic" in2="effect1_dropShadow_88_73" result="shape"/>
</filter>
<linearGradient id="paint0_linear_88_73" x1="-11.62" y1="90.1638" x2="119.741" y2="140.309" gradientUnits="userSpaceOnUse">
<stop stop-color="#EE1701"/>
<stop offset="0.197917" stop-color="#F7CF42"/>
<stop offset="0.442708" stop-color="#03D948"/>
<stop offset="0.640625" stop-color="#2986EB"/>
<stop offset="0.994792" stop-color="#B307EB"/>
</linearGradient>
<clipPath id="clip0_88_73">
<rect width="2714" height="474" fill="white"/>
</clipPath>
</defs>
</svg>
